<svg version="1.2" xmlns="http://www.w3.org/2000/svg" viewBox="0 0 256 256" width="512" height="512">
	<title>beat-sign-gamejam</title>
	<style>
		.s0 { fill: #d5a45d;stroke: #392c19;stroke-linecap: round;stroke-linejoin: round;stroke-width: 8 } 
		.s1 { fill: #a76f32 } 
		.s2 { fill: #c08648 } 
		.s3 { paint-order:stroke fill markers;stroke: #673e20;stroke-width: 8;stroke-linejoin: round;;fill: #ffffff } 
	</style>
	<path id="Pole" class="s0" d="m116.8 253l2.6-127.5 25.5-1.4-2.6 126.2"/>
	<path id="Lager 2" class="s1" d="m141.8 135.5l-2.9 115.8-15.9 0.4 2.2-1.7 10-2.8c0 0 2.9-106.7 2.8-106.7-0.1 0-15.4-2.8-15-2.8z"/>
	<path id="Sign" class="s0" d="m3 40.6l245.3-38.6 1.7 46.5-28.3 13.2 29-3.2-3.1 69.6-234.2 10.8-2.2-21.9 21.8-10.8h-22.3z"/>
	<path id="Form 2" class="s2" d="m45.8 83.2l171.3-23.8 4.1 5.3-174 22zm171.4-23.8l4.1 5.3z"/>
	<path id="Form 1" class="s1" d="m244.7 126.8l-228.2 9.2v-4l225.3-9.8 0.7-21.5 3.5-26.7z"/>
	<path id="Form 4" class="s2" d="m36.9 104l125.1-11.4-3.3 3.7-123.2 13.1"/>
	<path id="Tap to the beat of the music" class="s3" aria-label="Tap to the
beat of the
music"  d="m66.5 40.5q2.1-0.3 3.5-0.2 1.4 0 2.3 0.2 0.9 0.2 1.2 0.6 0.4 0.5 0.4 1.1 0 0.9-0.7 1.5-0.6 0.7-2 0.9-0.9 0.1-2 0.1-1.1-0.1-2.2-0.3l0.3-0.4q0.3 1.4 0.5 3.1 0.2 1.8 0.4 3.6 0.2 1.7 0.3 3.3 0.1 1.6 0.1 2.7 0.1 2.2-0.5 3.4-0.5 1.2-1.8 1.4-1.2 0.1-1.7-0.8-0.6-0.9-0.6-3 0-1.3 0.1-3.1 0.1-1.7 0.2-3.6 0.2-1.9 0.5-3.6 0.2-1.8 0.5-3.1l0.5 0.3q-0.6 0.3-1.5 0.6-0.8 0.3-1.6 0.6-0.9 0.2-1.5 0.3-1.4 0.2-2-0.2-0.6-0.4-0.6-1.1 0-0.8 0.4-1.3 0.4-0.6 1.4-1.2 1-0.6 2.5-1 1.6-0.5 3.6-0.8zm21.9 17.9q-1 0.2-1.3-0.5-0.4-0.7-0.5-2.4l0.3 0.1q-1.5 3.3-5.8 3.9-2 0.3-3.3-0.2-1.3-0.5-2-1.6-0.6-1.2-0.6-2.6-0.1-2.4 1.6-4 1.6-1.7 4.4-2.1 1.8-0.2 3.1 0.1 1.3 0.4 2.3 1.2h-0.5q-0.2-2.8-1.3-3.9-1-1.1-2.9-0.8-1 0.1-1.9 0.6-0.9 0.5-1.7 1-0.8 0.4-1.4 0.5-0.7 0.1-1.1-0.3-0.4-0.4-0.4-1.1 0-1 0.9-2.1 1-1 2.6-1.8 1.5-0.8 3.4-1 2.2-0.3 3.9 0.5 1.6 0.9 2.5 2.9 0.7 1.7 1.1 3.9 0.3 2.1 0.4 4.7 0 1.9-0.2 2.9-0.2 1.1-0.6 1.6-0.4 0.4-1 0.5zm-6.2-2.3q0.9-0.1 1.9-0.5 0.9-0.4 1.5-1 0.6-0.6 0.6-1.4 0-0.7-0.5-1-0.6-0.4-1.5-0.5-0.8-0.1-1.8 0-1.7 0.3-2.6 1-0.8 0.7-0.8 1.7 0 1 0.8 1.5 0.8 0.5 2.4 0.2zm13-16.4q0.7-0.1 1.2 0.7 0.6 0.8 0.8 2.7l-0.6 0.6q0.5-2 1.8-3.2 1.4-1.3 3.2-1.5 1.7-0.3 3.1 0.4 1.3 0.8 2.1 2.5 0.8 1.7 0.9 4.4 0 4.4-1.5 6.7-1.5 2.3-4.2 2.7-1.9 0.3-3.1-0.4-1.1-0.7-1.6-1.8l0.4-0.3q0.2 1.7 0.4 3.3 0.2 1.6 0.2 2.9 0 1.2-0.4 2.2-0.4 0.9-1.4 1-0.9 0.2-1.4-0.5-0.5-0.6-0.7-1.8-0.2-1.2-0.4-3.1-0.2-2-0.4-4.2-0.1-2.2-0.1-4.4-0.1-2.2 0-4.1 0.1-1.9 0.3-3.2 0.2-0.7 0.5-1.1 0.4-0.4 0.9-0.5zm5.3 2.7q-1.5 0.2-2.3 1.8-0.9 1.6-0.9 4 0.1 2.4 1 3.4 0.9 1.1 2.4 0.9 1.6-0.3 2.3-1.7 0.7-1.5 0.7-3.6 0-2.7-1-3.8-0.9-1.2-2.2-1zm20-5.8l-0.5 0.1q-0.1-1.2 0-2.3 0.1-1.2 0.6-1.9 0.4-0.8 1.3-0.9 0.7-0.1 1.1 0.4 0.4 0.4 0.4 1.3 0 1.8-0.6 3.1h-0.5q1.5-0.7 3.4-1 1.2-0.1 1.9 0.2 0.7 0.4 0.7 1.5 0 1-0.8 1.7-0.8 0.6-2.1 0.8-0.7 0.1-1.6 0.2-0.8 0-1.6 0l0.4-0.7q0.3 1 0.6 2.4 0.2 1.3 0.5 2.7 0.2 1.5 0.3 2.8 0.2 1.4 0.2 2.5 0 1.8-0.5 2.9-0.6 1.1-1.6 1.3-0.9 0.1-1.4-0.4-0.5-0.5-0.7-1.2-0.2-0.9-0.3-1.7-0.1-0.9-0.1-1.7 0-1.2 0.1-2.8 0.1-1.5 0.2-3.2 0.2-1.7 0.5-3.3l0.5 0.4q-1.4 0.9-3.4 1.2-1.3 0.2-2-0.2-0.7-0.4-0.7-1.4-0.1-1.1 0.7-1.8 0.8-0.7 2.1-0.9 0.8-0.1 1.6-0.1 0.8 0 1.3 0zm16.8 14.7q-2.2 0.3-3.9-0.4-1.7-0.8-2.6-2.5-0.9-1.8-1-4.3 0-2.7 0.9-4.8 0.8-2.1 2.5-3.5 1.6-1.4 3.9-1.7 2.3-0.3 4.1 0.5 1.8 0.9 2.8 2.7 1 1.8 1 4.3 0.1 2.7-0.8 4.7-1 2.1-2.7 3.4-1.8 1.3-4.2 1.6zm0.3-3.8q1.7-0.3 2.7-1.8 1-1.6 1-3.9-0.1-2.3-1.1-3.5-1.1-1.3-2.8-1-1.7 0.2-2.7 1.8-1 1.5-1 3.8 0 2.3 1.1 3.6 1 1.2 2.8 1zm20.3-16.1h-0.5q-0.2-1.2 0-2.3 0.1-1.1 0.5-1.9 0.5-0.8 1.3-0.9 0.8-0.1 1.2 0.4 0.3 0.4 0.4 1.3 0 1.8-0.6 3.1l-0.5 0.1q1.4-0.8 3.3-1 1.2-0.2 1.9 0.2 0.7 0.3 0.8 1.4 0 1-0.8 1.7-0.9 0.6-2.1 0.8-0.8 0.1-1.6 0.2-0.8 0-1.7 0l0.5-0.7q0.3 1 0.5 2.4 0.3 1.3 0.5 2.7 0.2 1.5 0.4 2.8 0.1 1.4 0.1 2.5 0.1 1.8-0.5 2.9-0.5 1.1-1.6 1.3-0.8 0.1-1.4-0.4-0.4-0.4-0.7-1.2-0.2-0.8-0.3-1.7 0-0.9 0-1.7 0-1.2 0.1-2.7 0-1.6 0.2-3.3 0.2-1.7 0.4-3.3l0.6 0.4q-1.4 0.9-3.5 1.2-1.3 0.2-2-0.2-0.7-0.3-0.7-1.4 0-1.1 0.8-1.8 0.7-0.7 2-0.9 0.9-0.1 1.6-0.1 0.8 0 1.4 0.1zm12.7-7.2q0.9-0.1 1.3 0.5 0.3 0.7 0.4 2.1 0 1.2-0.1 3-0.1 1.9-0.3 3.6h-0.2q0.9-1.8 2.3-3.1 1.5-1.3 3.1-1.5 1.4-0.2 2.5 0.3 1.1 0.5 1.8 1.9 0.7 1.2 1 3 0.4 1.8 0.4 3.4 0.1 2.6-0.3 4.2-0.3 1.6-0.9 2.4-0.6 0.7-1.4 0.9-1.8 0.2-1.8-2.7 0-1.4 0.1-2.9 0.1-1.5 0.1-2.7 0-2.1-0.7-3.1-0.7-1-1.9-0.8-1.5 0.2-2.4 1.7-1 1.5-0.9 4 0 1.2 0.3 2.7 0.2 1.5 0.2 2.7 0.1 1.4-0.5 2.1-0.5 0.6-1.3 0.7-0.6 0.1-1 0-0.5-0.2-0.8-0.9-0.4-0.7-0.6-2.1-0.2-1-0.4-2.5-0.2-1.4-0.3-3-0.2-1.6-0.3-3.1 0-1.5-0.1-2.8 0-4 0.7-5.9 0.7-1.9 2-2.1zm23.5 19.2q-3.1 0.4-4.9-0.2-1.9-0.7-2.7-2.3-0.9-1.6-0.9-4.1-0.1-3 1-5.3 1.1-2.3 3.1-3.8 1.9-1.4 4.5-1.8 2.9-0.4 4.3 0.8 1.4 1.2 1.5 3.5 0 1.8-0.9 3.2-0.9 1.4-2.5 2.4-1.6 0.9-3.8 1.2-1.2 0.2-2.3 0-1.1-0.1-2-0.5l0.7-1.4q-0.1 0.7-0.1 1.4 0 1.9 1.3 2.6 1.2 0.7 3.4 0.4 1.8-0.3 2.8-0.7 1.1-0.5 1.8-0.8 0.7-0.5 1.4-0.6 0.4 0 0.7 0.2 0.3 0.1 0.5 0.5 0.3 0.3 0.3 0.9 0 0.8-0.8 1.8-0.8 0.8-2.5 1.6-1.6 0.7-3.9 1zm-1.8-8.9q2-0.3 3.2-1.3 1.1-1 1.1-2.3 0-1-0.7-1.5-0.6-0.5-2-0.4-1.3 0.2-2.4 0.9-1 0.6-1.6 1.5-0.5 0.8-0.5 1.8 0 0.8 0.8 1.1 0.8 0.3 2.1 0.2zm-137.2 62.4q-0.7 0.1-1.1-0.3-0.3-0.3-0.6-1.1-0.2-1.1-0.4-2.9-0.2-1.9-0.2-4 0-1.2 0-2.8 0-1.5 0.1-3 0.1-1.6 0.1-3 0.2-1.4 0.3-2.2 0.2-1.3 0.6-2.1 0.4-0.7 1.4-0.9 0.9-0.1 1.4 0.6 0.4 0.6 0.5 1.7 0 1.3-0.2 3-0.1 1.7-0.4 3.5l-0.6 0.7q0.3-1.2 1-2.3 0.6-1 1.7-1.8 1-0.7 2.4-0.9 2.7-0.4 4.4 1.4 1.6 1.7 1.7 5.8 0.1 2.9-0.7 5-0.8 2-2.3 3.2-1.4 1.2-3.3 1.4-1.7 0.3-3-0.6-1.3-0.9-1.7-2.8l0.4 0.3q-0.1 2-0.5 3-0.4 1-1 1.1zm5-4.1q1.3-0.2 2.4-1.6 1-1.4 1-4.1-0.1-2.3-0.9-3.6-0.9-1.3-2.8-1-1.5 0.2-2.5 1.6-0.9 1.4-0.8 3.9 0 2.3 1 3.7 1 1.3 2.6 1.1zm17.8 0.8q-3 0.5-4.9-0.2-1.8-0.7-2.7-2.3-0.8-1.6-0.8-4-0.1-3.1 1-5.4 1.1-2.3 3-3.8 2-1.4 4.5-1.7 3-0.5 4.4 0.7 1.4 1.2 1.4 3.5 0.1 1.8-0.8 3.2-0.9 1.4-2.6 2.4-1.6 0.9-3.7 1.2-1.2 0.2-2.3 0-1.1-0.1-2-0.5l0.6-1.4q-0.1 0.7 0 1.4 0 2 1.2 2.7 1.3 0.6 3.5 0.3 1.8-0.2 2.8-0.7 1-0.4 1.8-0.8 0.7-0.4 1.4-0.5 0.4-0.1 0.7 0.1 0.3 0.1 0.5 0.5 0.2 0.4 0.2 0.9 0.1 0.9-0.8 1.8-0.8 0.8-2.4 1.6-1.6 0.7-4 1zm-1.7-8.9q1.9-0.3 3.1-1.3 1.2-1 1.2-2.3-0.1-1-0.7-1.5-0.7-0.5-2.1-0.3-1.3 0.2-2.3 0.8-1 0.6-1.6 1.5-0.6 0.9-0.5 1.8 0 0.8 0.7 1.1 0.8 0.4 2.2 0.2zm23.6 5.9q-1 0.1-1.4-0.6-0.3-0.7-0.4-2.3l0.3 0.1q-1.5 3.3-5.8 3.9-2 0.3-3.3-0.2-1.3-0.6-2-1.7-0.6-1.1-0.6-2.5-0.1-2.4 1.5-4 1.7-1.7 4.4-2.1 1.8-0.3 3.2 0.1 1.3 0.3 2.3 1.2h-0.5q-0.3-2.8-1.3-3.9-1-1.1-2.9-0.8-1.1 0.1-2 0.6-0.9 0.4-1.6 0.9-0.8 0.5-1.5 0.6-0.6 0.1-1-0.3-0.4-0.4-0.4-1.1 0-1.1 0.9-2.1 1-1 2.5-1.8 1.6-0.8 3.5-1.1 2.2-0.3 3.8 0.6 1.7 0.9 2.5 2.9 0.8 1.6 1.1 3.8 0.4 2.2 0.4 4.7 0.1 1.9-0.1 3-0.2 1.1-0.6 1.5-0.4 0.5-1 0.6zm-6.2-2.3q0.9-0.1 1.8-0.5 1-0.4 1.6-1 0.6-0.7 0.6-1.5 0-0.6-0.6-1-0.5-0.3-1.4-0.4-0.9-0.1-1.9 0-1.6 0.2-2.5 1-0.9 0.7-0.9 1.6 0.1 1.1 0.9 1.6 0.8 0.4 2.4 0.2zm14.9-16.2l-0.5 0.1q-0.1-1.2 0-2.3 0.1-1.2 0.5-1.9 0.5-0.8 1.4-0.9 0.7-0.1 1.1 0.3 0.4 0.5 0.4 1.4 0 1.8-0.6 3.1h-0.5q1.5-0.7 3.3-1 1.2-0.2 1.9 0.2 0.8 0.4 0.8 1.5 0 1-0.8 1.7-0.8 0.6-2.1 0.8-0.7 0.1-1.6 0.2-0.8 0-1.6-0.1l0.4-0.6q0.3 1 0.5 2.4 0.3 1.3 0.5 2.7 0.3 1.4 0.4 2.8 0.1 1.4 0.2 2.5 0 1.7-0.5 2.9-0.6 1.1-1.7 1.2-0.8 0.2-1.3-0.3-0.5-0.5-0.7-1.3-0.3-0.8-0.3-1.7-0.1-0.9-0.1-1.6 0-1.2 0.1-2.8 0.1-1.6 0.2-3.3 0.2-1.6 0.5-3.2l0.5 0.4q-1.4 0.9-3.5 1.2-1.2 0.2-1.9-0.2-0.7-0.4-0.8-1.4 0-1.1 0.8-1.8 0.8-0.7 2.1-0.9 0.8-0.1 1.6-0.1 0.7 0 1.3 0zm22.6 13.9q-2.2 0.3-3.9-0.5-1.7-0.8-2.6-2.5-0.9-1.7-1-4.3 0-2.6 0.9-4.8 0.8-2.1 2.5-3.4 1.6-1.4 3.9-1.7 2.3-0.3 4.1 0.5 1.8 0.8 2.8 2.6 1 1.8 1 4.4 0.1 2.6-0.8 4.7-1 2-2.7 3.3-1.8 1.3-4.2 1.7zm0.3-3.9q1.7-0.2 2.7-1.7 1-1.6 1-3.9-0.1-2.3-1.1-3.6-1.1-1.2-2.8-1-1.7 0.3-2.7 1.8-1 1.5-1 3.9 0 2.3 1.1 3.5 1 1.3 2.8 1zm14.6-14.2l-0.3 0.1q-0.3-1.2-0.3-2.4 0-2 1-3.3 1.1-1.4 3.6-1.7 1.6-0.3 2.3 0.2 0.7 0.3 0.7 1.3 0 1.8-2 2.3-1 0.2-1.6 0.6-0.6 0.3-0.8 1-0.3 0.6-0.3 1.7h-0.5q0.7-0.3 1.5-0.6 0.9-0.2 1.8-0.4 1.2-0.1 1.9 0.2 0.8 0.4 0.8 1.4 0 1.1-0.8 1.7-0.7 0.7-1.9 0.8-0.7 0.1-1.4 0.1-0.8 0-1.5-0.1l0.1-0.4q0.3 1.4 0.5 3.1 0.2 1.6 0.4 3.3 0.1 1.7 0.2 3.2 0 0.9-0.3 1.8-0.2 0.8-0.7 1.4-0.5 0.6-1.3 0.7-1.1 0.2-1.7-0.7-0.5-0.9-0.5-2.3 0-1.3 0.1-3 0.1-1.8 0.3-3.6 0.2-1.9 0.6-3.6l0.3 0.2q-1.4 0.8-3.6 1.1-1.2 0.2-1.8-0.2-0.7-0.3-0.7-1.3 0-1 0.8-1.6 0.7-0.7 2-0.9 0.9-0.1 1.7-0.1 0.8 0 1.4 0zm20.2-3.9h-0.5q-0.2-1.2 0-2.3 0.1-1.1 0.5-1.9 0.5-0.7 1.3-0.9 0.8-0.1 1.2 0.4 0.3 0.4 0.4 1.3 0 1.8-0.6 3.2h-0.5q1.4-0.8 3.3-1 1.2-0.2 1.9 0.2 0.7 0.3 0.8 1.4 0 1-0.8 1.7-0.9 0.6-2.1 0.8-0.8 0.1-1.6 0.2-0.8 0-1.7 0l0.5-0.7q0.3 1.1 0.5 2.4 0.3 1.3 0.5 2.7 0.2 1.5 0.4 2.8 0.1 1.4 0.1 2.5 0.1 1.8-0.5 2.9-0.5 1.1-1.6 1.3-0.8 0.1-1.4-0.4-0.4-0.4-0.7-1.2-0.2-0.8-0.3-1.7 0-0.9 0-1.6 0-1.3 0-2.8 0.1-1.6 0.3-3.3 0.2-1.7 0.4-3.3l0.6 0.4q-1.4 0.9-3.5 1.2-1.3 0.2-2-0.2-0.7-0.3-0.7-1.4 0-1 0.8-1.7 0.7-0.8 2-1 0.9-0.1 1.6-0.1 0.8 0 1.4 0.1zm12.7-7.2q0.9-0.1 1.3 0.5 0.3 0.7 0.4 2.1 0 1.2-0.1 3-0.1 1.9-0.3 3.6h-0.2q0.9-1.8 2.3-3.1 1.5-1.3 3.1-1.5 1.4-0.2 2.5 0.3 1.1 0.6 1.8 1.9 0.7 1.2 1 3 0.4 1.8 0.4 3.4 0.1 2.6-0.3 4.2-0.3 1.6-0.9 2.4-0.6 0.8-1.4 0.9-1.8 0.2-1.8-2.7 0-1.4 0.1-2.9 0.1-1.5 0.1-2.7 0-2.1-0.7-3.1-0.7-1-1.9-0.8-1.5 0.2-2.4 1.7-1 1.5-0.9 4 0 1.2 0.3 2.7 0.2 1.5 0.2 2.7 0 1.4-0.5 2.1-0.5 0.6-1.3 0.7-0.6 0.1-1 0-0.5-0.2-0.8-0.9-0.4-0.7-0.6-2.1-0.2-1-0.4-2.5-0.2-1.4-0.3-3-0.2-1.6-0.3-3.1-0.1-1.5-0.1-2.8 0-4 0.7-5.9 0.7-1.9 2-2.1zm23.5 19.2q-3.1 0.4-4.9-0.2-1.9-0.7-2.7-2.3-0.9-1.6-0.9-4.1-0.1-3 1-5.3 1.1-2.3 3.1-3.8 1.9-1.4 4.5-1.8 2.9-0.4 4.3 0.8 1.4 1.2 1.5 3.5 0 1.8-0.9 3.2-0.9 1.4-2.5 2.4-1.6 0.9-3.8 1.2-1.2 0.2-2.3 0-1.1-0.1-2-0.5l0.7-1.4q-0.1 0.7-0.1 1.4 0 2 1.3 2.7 1.2 0.6 3.4 0.3 1.8-0.2 2.8-0.7 1.1-0.5 1.8-0.8 0.7-0.5 1.4-0.6 0.4 0 0.7 0.2 0.3 0.1 0.5 0.5 0.3 0.4 0.3 0.9 0 0.9-0.8 1.8-0.8 0.8-2.5 1.6-1.6 0.7-3.9 1zm-1.8-8.9q2-0.3 3.2-1.3 1.1-1 1.1-2.3 0-1-0.7-1.5-0.6-0.5-2-0.3-1.3 0.1-2.4 0.8-1 0.6-1.6 1.5-0.5 0.9-0.5 1.8 0 0.8 0.8 1.1 0.8 0.3 2.1 0.2zm-95.9 43.7l-0.4-0.3q0.3-1.1 1-2.2 0.7-1 1.7-1.7 1-0.7 2.2-0.8 1.4-0.3 2.6 0.3 1.1 0.5 1.7 2 0.7 1.6 0.8 4.2 0 1.4-0.1 2.8-0.1 1.4-0.2 2.7-0.1 1.2-0.3 2-0.3 1.2-0.9 1.9-0.5 0.6-1.4 0.8-0.7 0.1-1.1-0.5-0.4-0.6-0.5-1.8 0-0.6 0.2-1.5 0.1-0.9 0.2-1.9 0.2-1.1 0.3-2.3 0.1-1.1 0.1-2.1 0-1.4-0.6-2.1-0.6-0.7-1.7-0.6-1.1 0.2-1.9 1.5-0.7 1.3-0.8 3.7-0.1 2.1-0.1 3.7-0.1 1.6-0.4 2.7-0.2 0.8-0.6 1.2-0.4 0.4-1.1 0.5-0.7 0.1-1.2-0.4-0.4-0.5-0.5-1.7-0.1-1-0.1-2.4 0-1.4 0-2.7 0-1.4 0-2.3-0.2-1.8-0.7-2.5-0.5-0.8-1.6-0.6-1.2 0.1-1.9 1.3-0.6 1.3-0.8 3.3 0 0.8 0 2 0.1 1.2 0.1 2.4 0.1 1.1 0 1.9 0 1.7-0.5 2.5-0.4 0.8-1.3 0.9-1 0.2-1.5-0.4-0.4-0.6-0.6-2.1-0.1-1.3-0.2-2.6-0.1-1.3-0.1-2.6 0-1.3 0-2.9 0-1.5 0.1-2.9 0.2-1.4 0.6-2.5 0.4-1 1.4-1.1 0.8-0.1 1.1 0.7 0.4 0.7 0.4 2.3 0 0.6-0.1 1.1l-0.1-0.6q0.5-1.9 1.7-3 1.2-1.3 2.7-1.5 2-0.2 3.1 0.9 1.2 1.1 1.3 3.3zm25.6 8.8q-0.7 0.1-1.2-0.3-0.4-0.5-0.5-1.3-0.2-0.8-0.2-1.8l0.2-0.1q-0.3 1.2-1.1 2.2-0.8 1-1.8 1.6-1.1 0.6-2.1 0.8-1.4 0.2-2.6-0.3-1.2-0.5-1.8-1.8-0.7-1.4-1.1-3.6-0.4-2.3-0.5-4.6 0-1.3 0.1-2.4 0.1-1.2 0.3-1.9 0.2-0.8 0.7-1.2 0.4-0.4 1.1-0.5 0.8-0.1 1.3 0.5 0.5 0.5 0.6 1.6 0.1 1 0.2 2.3 0 1.4 0.1 2.7 0.1 1.4 0.2 2.3 0.2 1.7 0.9 2.4 0.7 0.7 1.7 0.5 1.5-0.2 2.2-1.4 0.8-1.3 0.7-3.3 0-1-0.1-2.2-0.2-1.3-0.3-2.5-0.2-1.2-0.2-2 0-1.3 0.4-1.9 0.5-0.7 1.3-0.8 0.6-0.1 1.1 0.2 0.4 0.3 0.7 0.9 0.4 0.8 0.7 2.2 0.3 1.5 0.5 3.3 0.2 1.8 0.3 3.9 0 3.1-0.3 4.7-0.4 1.6-1.5 1.8zm12-19.2q2.4-0.3 3.5 0.3 1.1 0.6 1.1 1.7 0.1 0.7-0.4 1.2-0.4 0.5-1.3 0.6-0.8 0.1-1.8 0-0.9-0.1-2.1 0-1.4 0.2-2.1 0.9-0.7 0.7-0.7 1.5 0 0.9 0.7 1.2 0.6 0.4 2.4 0.4 2-0.1 3.2 0.2 1.3 0.3 2 1.2 0.7 0.9 0.7 2.6 0 2.6-1.8 4.2-1.8 1.6-5.1 2-2.1 0.3-3.3 0.1-1.2-0.1-1.8-0.7-0.5-0.5-0.5-1.3-0.1-0.8 0.4-1.2 0.5-0.5 1.2-0.6 0.6-0.1 1.3 0 0.7 0 1.6 0.1 0.8 0 1.6-0.1 2.8-0.4 2.8-2.1-0.1-0.6-0.3-1-0.3-0.3-1-0.4-0.8-0.2-2.2-0.1-1.6 0.1-2.9-0.2-1.2-0.2-1.9-1-0.6-0.9-0.7-2.6 0-2.6 1.9-4.4 1.9-1.9 5.5-2.5zm10.1-5.4q1.1-0.1 1.6 0.4 0.5 0.6 0.5 1.4 0.1 1-0.5 1.7-0.6 0.6-1.7 0.7-1 0.2-1.6-0.3-0.5-0.6-0.5-1.4-0.1-1.1 0.6-1.7 0.6-0.6 1.6-0.8zm0.3 6.3q0.9-0.1 1.4 1.5 0.6 1.6 0.7 5.3 0 4.5-0.6 6.6-0.6 2-1.9 2.2-1 0.2-1.5-1.2-0.5-1.4-0.5-5.1-0.1-4.5 0.6-6.8 0.7-2.4 1.8-2.5zm12.4 13.8q-3.8 0.6-5.7-1.2-1.8-1.7-1.8-5.3-0.1-2.8 0.9-5.1 1.1-2.3 3-3.8 2-1.5 4.8-1.9 2.6-0.4 3.9 0.3 1.3 0.6 1.4 1.9 0 0.8-0.5 1.3-0.5 0.5-1.4 0.7-0.6 0.1-1.1 0-0.5-0.1-1.2-0.2-0.6-0.1-1.5 0-2.3 0.4-3.5 1.8-1.1 1.4-1 3.7 0 2.2 1.1 3.1 1.2 0.8 3.1 0.5 0.9-0.1 1.6-0.4 0.7-0.3 1.3-0.6 0.7-0.3 1.3-0.4 0.6-0.1 1.1 0.2 0.4 0.4 0.4 1.1 0 0.9-0.7 1.8-0.6 0.9-2 1.6-1.4 0.7-3.5 0.9z"/>
</svg>