<svg version="1.2" xmlns="http://www.w3.org/2000/svg" viewBox="0 0 64 64" width="64" height="64">
	<title>Leaf-hp3-gamejam</title>
	<style>
		.s0 { fill: #80ab43;stroke: #3e4d1a;stroke-linecap: round;stroke-linejoin: round;stroke-width: 2 } 
		.s1 { fill: none;stroke: #4d631f;stroke-miterlimit:100;stroke-width: 3 } 
	</style>
	<path id="Background" class="s0" d="m9.7 65l6.3-13c0 0 4.2-11.4-0.2-18.9-0.6-1.1 1.1-5.6 10-6.1 8.9-0.5 0.2-13 0.2-13 2.8-2.1 6.5-2.6 10-3.7 3.8-1.2 11-2.3 11-2.3h9c0-0.6 2 6.1 2 8 0 1.6-1.6 10.8-1 10 0.2-0.2-2.2 6-3 9-0.3 1.3-2.2 2.6-8 5.8-2.7 1.5-4.8 4.3-10.7 7-4.9 2.3-17.5 3.4-16.3 3.2z"/>
	<path id="Lager 1" class="s1" d="m19 49l14-20 12-9 5-4"/>
	<path id="Lager 2" class="s1" d="m50 25l-7-3-4-6"/>
	<path id="Lager 3" class="s1" d="m44 31l-7-4-5-7"/>
	<path id="Lager 4" class="s1" d="m36 37l-6-3-4-7"/>
	<path id="Lager 5" class="s1" d="m32 44l-6-4-4-7"/>
</svg>