<svg version="1.2" xmlns="http://www.w3.org/2000/svg" viewBox="0 0 1024 256" width="1024" height="256">
	<title>Placeholder-Dirt-Ground-Gamejam</title>
	<style>
		.s0 { fill: #6c4e33;stroke: #558845;paint-order:stroke fill markers;stroke-linecap: round;stroke-linejoin: bevel;stroke-width: 4 } 
		.s1 { fill: #5ca765;stroke: #558845;paint-order:stroke fill markers;stroke-linecap: round;stroke-linejoin: bevel;stroke-width: 4 } 
		.s2 { fill: #4d7134;stroke: #4e7439;paint-order:stroke fill markers;stroke-linecap: round;stroke-linejoin: bevel;stroke-width: 2 } 
		.s3 { fill: none;stroke: #558845;paint-order:stroke fill markers;stroke-linecap: round;stroke-linejoin: bevel;stroke-width: 4 } 
	</style>
	<path id="Form 1" class="s0" d="m0 130h1031v137h-1031zm50 22"/>
	<path id="Lager 1" class="s1" d="m0 117l104-4 147-1 57 4 42 3 45 3 109-5 78 1 69-6 115-1 93-1 71-1 27 4 67 3 4 21-38 9-28-11-27 14-53 11-37-23-53-5-80-4c0 0-49 7.6-57 11-8 3.4-27.5 26.1-35 28-7.5 1.9-53 11.6-66 6-13-5.6-47-20-47-20l-84-10-35-8-34 22c0 0-23 16.1-31 13-8-3.1-30.5-11.9-43-17-12.5-5.1-22-6.4-34-11-12-4.6-75 17-75 17l-21 6-53-17-37-2-8 6-8-15-19-2-10 9-8-8-7 1.4z"/>
	<path id="Lager 2" class="s2" d="m51.2 149l3.2-8.8 1.6 10-3.8 2.1z"/>
	<path id="Background" class="s3" d="m0 115c270.9-7.1 301.2 0.5 338 3.9 22.7 2.1 150-0.8 174-0.9 24-0.1 234-6.9 249-5 15 1.9 139-6 175-2.1 36 3.9 85 4.1 105 8"/>
</svg>