<svg version="1.2" xmlns="http://www.w3.org/2000/svg" viewBox="0 0 256 256" width="256" height="256">
	<title>WASD-sign-jam</title>
	<style>
		.s0 { fill: #d5a45d;stroke: #392c19;stroke-linecap: round;stroke-linejoin: round;stroke-width: 8 } 
		.s1 { fill: #a76f32 } 
		.s2 { fill: #c08648 } 
		.s3 { fill: #ddc7b0;stroke: #82603c;stroke-linecap: round;stroke-linejoin: bevel;stroke-width: 4.5 } 
		.s4 { fill: none;stroke: #805526;stroke-linecap: round;stroke-linejoin: round;stroke-width: 6 } 
		.s5 { fill: #ddc7b0;stroke: #82603c;stroke-linecap: square;stroke-linejoin: bevel;stroke-width: 4.5 } 
		.s6 { fill: none;stroke: #805526;stroke-linecap: round;stroke-linejoin: round;stroke-width: 5.5 } 
	</style>
	<path id="Pole" class="s0" d="m116.8 253l2.6-127.5 25.5-1.4-2.6 126.2"/>
	<path id="Lager 2" class="s1" d="m141.8 135.5l-2.9 115.8-15.9 0.4 2.2-1.7 10-2.8c0 0 2.9-106.7 2.8-106.7-0.1 0-15.4-2.8-15-2.8z"/>
	<path id="Sign" class="s0" d="m3 40.6l245.3-38.6 1.7 46.5-28.3 13.2 29-3.2-3.1 69.6-234.2 10.8-2.2-21.9 21.8-10.8h-22.3z"/>
	<path id="Form 2" class="s2" d="m45.8 83.2l171.3-23.8 4.1 5.3-174 22zm171.4-23.8l4.1 5.3z"/>
	<path id="Form 5" class="s3" d="m106 34.5l46.5-7 0.8 41.7-44 2.8z"/>
	<path id="Lager 3" class="s4" d="m140 43l-2 17-7-7-5 7-7-14"/>
	<path id="Form 1" class="s1" d="m244.7 126.8l-228.2 9.2v-4l225.3-9.8 0.7-21.5 3.5-26.7z"/>
	<path id="Form 4" class="s2" d="m36.9 104l125.1-11.4-3.3 3.7-123.2 13.1"/>
	<path id="Form 5 copy" class="s5" d="m49.5 86.2l48.5-8.5v45.8l-45.3 1.2z"/>
	<path id="Lager 3 copy" class="s6" d="m75.3 90.7l-5.6 15-3.7 9.3 4-9.4 10.9-0.9 3.8 10.3z"/>
	<path id="Form 5 copy 2" class="s3" d="m108.5 79.7l45.5-3.2 0.8 44.5-47.3 2z"/>
	<path id="Lager 4" class="s4" d="m139.4 90.6c-6.1-6.1-12.2-3.2-13.8 0-1.6 3.2 0.4 8.3 5.7 9.7 5.3 1.4 7.9 3 7.3 6.4-0.6 3.5-2.5 4.5-8.5 4.3-6.1-0.2-5.9-1.2-7.1-5.3"/>
	<path id="Form 5 copy 3" class="s3" d="m163.8 74l48.9-4.5-1.7 48.2-47.8 2z"/>
	<path id="Lager 4 copy" class="s4" d="m181.8 83.1c-4.9 5.9-1.1 25.5-1.1 26.9 6.1-0.5 15.1 2.6 13.9-18.6-0.2-2.9-2.9-9.4-12.8-8.3z"/>
</svg>